<?xml-stylesheet type="text/css" href="../../css/style.css"?>
<svg xmlns="http://www.w3.org/2000/svg" xmlns:xlink="http://www.w3.org/1999/xlink" version="1.1" x="0px" y="0px" viewBox="0 0 24 30" style="enable-background:new 0 0 24 24;" xml:space="preserve"><g><path d="M16.594,9.124l0.347-1.548c0.031-0.143-0.012-0.289-0.114-0.391c-0.102-0.103-0.244-0.147-0.391-0.114l-1.548,0.347   L13.522,6.61c-0.125-0.073-0.277-0.078-0.407-0.013c-0.13,0.066-0.215,0.192-0.229,0.336l-0.149,1.58l-1.19,1.049   c-0.109,0.097-0.16,0.24-0.138,0.383s0.116,0.264,0.25,0.322l1.456,0.629l0.63,1.456c0.021,0.048,0.05,0.092,0.089,0.131   c0.063,0.064,0.144,0.105,0.232,0.119c0.022,0.003,0.045,0.005,0.067,0.005c0.12,0,0.235-0.051,0.315-0.143l1.049-1.19l1.58-0.149   c0.145-0.013,0.271-0.099,0.337-0.229c0.064-0.128,0.06-0.284-0.014-0.406L16.594,9.124z M15.252,10.449   c-0.107,0.01-0.206,0.061-0.276,0.141l-0.72,0.816l-0.432-0.999c-0.021-0.048-0.05-0.092-0.089-0.131   c-0.037-0.038-0.082-0.068-0.132-0.089l-0.998-0.432l0.816-0.719c0.081-0.071,0.132-0.17,0.142-0.277l0.102-1.083l0.937,0.554   c0.045,0.027,0.096,0.045,0.149,0.053c0.053,0.008,0.107,0.007,0.158-0.005l1.062-0.238l-0.237,1.062   c-0.023,0.105-0.006,0.214,0.049,0.307l0.555,0.936L15.252,10.449z"/><path d="M16.718,14.754c-0.107-0.007-0.216-0.011-0.326-0.011c-0.766,0-1.577,0.177-2.418,0.528   c-0.504,0.211-1.037,0.512-1.581,0.872L7.869,11.62c0.359-0.545,0.661-1.078,0.871-1.583v0c0.4-0.958,0.575-1.881,0.518-2.744   C9.25,7.181,9.199,7.078,9.114,7.003C9.037,6.936,8.939,6.899,8.837,6.899c-0.01,0-0.02,0-0.028,0.001   c-0.113,0.007-0.216,0.059-0.29,0.144C8.444,7.128,8.407,7.237,8.415,7.35c0.051,0.776-0.123,2.032-1.153,3.663L6.62,10.371   c-0.077-0.078-0.187-0.115-0.295-0.095c-0.109,0.018-0.201,0.084-0.251,0.184l-5.91,11.822c-0.079,0.159-0.121,0.336-0.121,0.514   c0,0.634,0.517,1.15,1.15,1.15c0.178,0,0.355-0.042,0.514-0.122l11.821-5.91c0.1-0.049,0.167-0.14,0.185-0.25   c0.018-0.11-0.017-0.218-0.096-0.297l-0.618-0.618c1.633-1.033,2.884-1.204,3.663-1.153c0.009,0,0.019,0.001,0.028,0.001   c0.22,0,0.406-0.171,0.421-0.394C17.127,14.972,16.95,14.77,16.718,14.754z M1.323,23.138c-0.042,0.016-0.085,0.03-0.13,0.03   c-0.206,0-0.373-0.167-0.373-0.373c0-0.057,0.014-0.115,0.04-0.167l0.463-0.926V23.138z M3.833,21.893L2.05,22.785V20.25   l0.843-1.685c0.018,0.003,0.031,0.02,0.049,0.02c0.093,0,0.186-0.035,0.256-0.106c0.068-0.068,0.106-0.16,0.106-0.256   s-0.038-0.188-0.106-0.255c-0.001-0.001-0.004-0.001-0.005-0.002l0.641-1.282V21.893z M6.343,20.638L4.56,21.529v-6.3l0.712-1.424   c0.057,0.035,0.114,0.075,0.18,0.075c0.093,0,0.186-0.036,0.256-0.106c0.141-0.141,0.141-0.371,0-0.512   c-0.037-0.038-0.089-0.039-0.136-0.056l0.77-1.541V20.638z M8.853,19.382L7.07,20.274V11.92l1.783,1.784V19.382z M11.363,18.127   L9.58,19.019V14.43l1.783,1.784V18.127z M12.091,17.763v-0.822l0.548,0.548L12.091,17.763z"/><path d="M20.591,15.341l0.008-0.75c0.002-0.146-0.069-0.28-0.191-0.359c-0.122-0.079-0.273-0.091-0.406-0.03l-0.684,0.313   l-0.712-0.24c-0.134-0.047-0.287-0.021-0.4,0.072c-0.112,0.091-0.17,0.232-0.153,0.376l0.087,0.746l-0.448,0.603   c-0.087,0.117-0.107,0.268-0.056,0.403c0.021,0.054,0.054,0.105,0.096,0.147c0.058,0.059,0.134,0.1,0.215,0.116l0.736,0.148   l0.436,0.612c0.015,0.02,0.03,0.04,0.048,0.057c0.082,0.081,0.189,0.121,0.297,0.121c0.108,0,0.217-0.041,0.299-0.123   c0.035-0.035,0.062-0.074,0.081-0.113l0.356-0.633l0.717-0.225c0.139-0.043,0.244-0.154,0.281-0.294   c0.038-0.141,0.002-0.289-0.097-0.395L20.591,15.341z M19.786,16.051c-0.104,0.032-0.189,0.102-0.242,0.196l-0.124,0.22   l-0.146-0.206c-0.062-0.088-0.155-0.148-0.262-0.169l-0.248-0.05l0.151-0.203c0.064-0.086,0.093-0.193,0.081-0.301l-0.03-0.25   l0.24,0.081c0.102,0.035,0.214,0.029,0.311-0.017l0.229-0.105l-0.003,0.252c-0.001,0.108,0.038,0.211,0.111,0.291l0.172,0.186   L19.786,16.051z"/><path d="M7.125,5.33l0.148,0.736c0.016,0.082,0.056,0.156,0.115,0.215C7.429,6.323,7.48,6.355,7.536,6.377   c0.048,0.018,0.1,0.027,0.15,0.027c0.09,0,0.18-0.028,0.253-0.083l0.603-0.448L9.288,5.96C9.44,5.976,9.573,5.919,9.666,5.807   c0,0,0,0,0,0c0.091-0.112,0.118-0.262,0.072-0.4l-0.24-0.712l0.312-0.683C9.871,3.879,9.86,3.727,9.781,3.605   C9.703,3.484,9.57,3.413,9.426,3.413c-0.001,0-0.002,0-0.004,0L8.671,3.42L8.118,2.912C8.011,2.813,7.86,2.778,7.722,2.815   c-0.141,0.038-0.25,0.143-0.294,0.282L7.204,3.814L6.55,4.182C6.423,4.253,6.343,4.383,6.336,4.528   C6.328,4.674,6.394,4.811,6.512,4.895L7.125,5.33z M7.764,4.468c0.095-0.053,0.164-0.139,0.196-0.242l0.075-0.241l0.186,0.171   C8.3,4.228,8.401,4.267,8.508,4.267c0.001,0,0.003,0,0.005,0l0.253-0.002L8.659,4.494c0,0,0,0,0,0   c-0.044,0.098-0.05,0.208-0.016,0.311l0.081,0.239L8.473,5.015C8.36,5.003,8.258,5.033,8.172,5.096l-0.202,0.15L7.92,4.999   C7.903,4.917,7.863,4.842,7.804,4.784C7.788,4.767,7.769,4.751,7.751,4.738L7.545,4.591L7.764,4.468z"/><path d="M13.944,6.161c0.015,0.015,0.031,0.029,0.05,0.042c0.075,0.056,0.162,0.082,0.249,0.082c0.13,0,0.258-0.059,0.341-0.171   c0.604-0.82,0.889-2.129,0.649-2.982c-0.062-0.223-0.291-0.353-0.521-0.293c-0.224,0.063-0.355,0.296-0.293,0.521v0   c0.171,0.609-0.065,1.641-0.516,2.252C13.781,5.78,13.799,6.016,13.944,6.161z"/><path d="M14.239,2.387c0.299,0,0.598-0.114,0.825-0.341c0.455-0.455,0.455-1.195,0-1.65c-0.22-0.22-0.513-0.342-0.825-0.342   s-0.605,0.122-0.825,0.342c-0.455,0.455-0.455,1.195,0,1.65C13.641,2.273,13.94,2.387,14.239,2.387z M14.011,0.992   c0.061-0.061,0.142-0.094,0.228-0.094s0.167,0.033,0.229,0.094c0.061,0.061,0.095,0.143,0.095,0.229   c-0.001,0.086-0.034,0.167-0.095,0.228c-0.074,0.073-0.175,0.088-0.274,0.073c-0.066-0.01-0.133-0.024-0.182-0.073   c-0.061-0.061-0.094-0.141-0.095-0.228C13.917,1.135,13.951,1.053,14.011,0.992z"/><path d="M17.73,9.704c-0.017,0.111,0.011,0.223,0.077,0.313c0.013,0.018,0.026,0.034,0.042,0.049   c0.081,0.082,0.189,0.123,0.299,0.123c0.088,0,0.176-0.027,0.25-0.082c0.612-0.45,1.644-0.688,2.253-0.516   c0.224,0.06,0.458-0.068,0.521-0.293c0.031-0.108,0.017-0.223-0.038-0.321c-0.056-0.099-0.146-0.169-0.255-0.2   c-0.854-0.238-2.163,0.046-2.98,0.65C17.806,9.495,17.748,9.593,17.73,9.704z"/><path d="M23.616,8.947c-0.455-0.455-1.195-0.455-1.65,0s-0.455,1.196,0,1.65c0.22,0.221,0.513,0.342,0.825,0.342   s0.605-0.121,0.825-0.342C24.071,10.143,24.071,9.402,23.616,8.947z M23.019,10c-0.127,0.126-0.33,0.125-0.457,0   c-0.125-0.126-0.125-0.331,0-0.456c0.063-0.063,0.146-0.094,0.229-0.094s0.165,0.031,0.229,0.094   c0.062,0.063,0.094,0.146,0.094,0.228C23.113,9.855,23.082,9.937,23.019,10z"/><path d="M5.41,9.973c0.113,0,0.219-0.044,0.299-0.124c0.164-0.165,0.164-0.433,0-0.597c0,0,0,0,0,0   c-0.16-0.158-0.438-0.158-0.597,0c-0.08,0.08-0.124,0.186-0.124,0.299c0,0.113,0.044,0.219,0.124,0.298   C5.191,9.929,5.297,9.973,5.41,9.973z"/><path d="M3.883,6.093c0.113,0,0.219-0.044,0.299-0.124c0.164-0.165,0.164-0.433,0-0.597c0,0,0,0,0,0   c-0.16-0.158-0.438-0.158-0.597,0c-0.08,0.08-0.124,0.186-0.124,0.299c0,0.113,0.044,0.219,0.124,0.298   C3.664,6.049,3.769,6.093,3.883,6.093z"/><path d="M12.008,5.588c0.112,0,0.219-0.044,0.298-0.123c0.08-0.08,0.124-0.186,0.124-0.298c0-0.113-0.044-0.22-0.124-0.3   c-0.16-0.158-0.438-0.159-0.597,0c-0.08,0.08-0.124,0.186-0.124,0.299c0,0.113,0.044,0.219,0.124,0.298   C11.788,5.544,11.894,5.588,12.008,5.588z"/><path d="M17.634,6.334c0.082,0.082,0.19,0.123,0.299,0.123s0.217-0.041,0.299-0.124c0.165-0.165,0.164-0.433-0.001-0.597   c-0.158-0.159-0.437-0.159-0.597,0C17.469,5.901,17.469,6.169,17.634,6.334C17.634,6.334,17.634,6.334,17.634,6.334z"/><path d="M10.354,13.016c-0.08,0.08-0.124,0.186-0.124,0.299c0,0.113,0.044,0.219,0.124,0.299c0.079,0.08,0.186,0.124,0.298,0.124   c0.113,0,0.22-0.044,0.299-0.123c0.08-0.08,0.124-0.186,0.124-0.299c0-0.113-0.044-0.219-0.124-0.298   C10.794,12.858,10.513,12.858,10.354,13.016z"/><path d="M19.135,12.136C19.135,12.136,19.135,12.136,19.135,12.136c-0.164,0.165-0.164,0.433,0,0.598   c0.082,0.082,0.19,0.123,0.299,0.123s0.217-0.041,0.299-0.124c0.164-0.165,0.164-0.433,0-0.598   C19.568,11.972,19.299,11.972,19.135,12.136z"/><path d="M14.478,18.021c-0.164-0.164-0.434-0.165-0.598,0c-0.164,0.165-0.164,0.433,0,0.598c0.082,0.082,0.19,0.123,0.299,0.123   s0.217-0.041,0.299-0.124C14.642,18.455,14.642,18.187,14.478,18.021C14.478,18.022,14.478,18.022,14.478,18.021z"/><path d="M18.615,19.807c-0.164-0.164-0.434-0.165-0.598,0c-0.164,0.165-0.164,0.433,0,0.598c0.082,0.082,0.19,0.123,0.299,0.123   s0.217-0.041,0.299-0.124C18.779,20.24,18.779,19.972,18.615,19.807C18.615,19.808,18.615,19.808,18.615,19.807z"/><path d="M9.969,11.12c0.08,0.079,0.186,0.123,0.299,0.123s0.219-0.044,0.298-0.123c0.08-0.08,0.124-0.186,0.124-0.299   c0-0.113-0.044-0.219-0.124-0.298c-0.158-0.159-0.437-0.159-0.597,0c-0.08,0.08-0.124,0.186-0.124,0.299   C9.845,10.934,9.889,11.041,9.969,11.12z"/><path d="M13.628,13.944c0.08-0.08,0.124-0.186,0.124-0.299c0-0.113-0.044-0.219-0.124-0.298c-0.158-0.16-0.438-0.158-0.597,0   c-0.08,0.08-0.124,0.186-0.124,0.298c0,0.113,0.044,0.22,0.124,0.299c0.079,0.08,0.186,0.124,0.299,0.124   C13.442,14.067,13.549,14.023,13.628,13.944z"/><path d="M7.706,18.595c-0.142,0.141-0.142,0.371,0,0.512c0.07,0.071,0.163,0.106,0.256,0.106s0.186-0.035,0.256-0.106   c0.142-0.141,0.142-0.371,0-0.512C8.077,18.454,7.846,18.454,7.706,18.595z"/><path d="M7.962,17.644c0.093,0,0.186-0.035,0.256-0.105c0.068-0.068,0.106-0.159,0.106-0.256s-0.038-0.188-0.106-0.256   c-0.141-0.142-0.371-0.142-0.512,0c-0.068,0.068-0.106,0.16-0.106,0.256s0.038,0.188,0.106,0.255   C7.776,17.609,7.869,17.644,7.962,17.644z"/><path d="M7.962,16.075c0.093,0,0.186-0.035,0.256-0.105c0.068-0.068,0.106-0.159,0.106-0.256s-0.038-0.188-0.106-0.256   c-0.141-0.142-0.371-0.142-0.512,0c-0.068,0.068-0.106,0.16-0.106,0.256s0.038,0.188,0.106,0.255   C7.776,16.04,7.869,16.075,7.962,16.075z"/><path d="M7.962,14.507c0.093,0,0.186-0.035,0.256-0.105v0c0.142-0.141,0.142-0.371,0-0.513c-0.141-0.14-0.371-0.14-0.512,0   c-0.142,0.141-0.142,0.371,0,0.513C7.776,14.472,7.869,14.507,7.962,14.507z"/><path d="M5.195,19.537c-0.141,0.141-0.141,0.371,0,0.512c0.07,0.071,0.163,0.106,0.257,0.106c0.093,0,0.186-0.036,0.256-0.106   c0.141-0.141,0.141-0.371,0-0.512C5.566,19.394,5.335,19.396,5.195,19.537z"/><path d="M2.685,21.105c-0.068,0.068-0.106,0.159-0.106,0.256s0.038,0.188,0.106,0.256c0.07,0.071,0.163,0.106,0.256,0.106   s0.186-0.035,0.256-0.106c0.068-0.068,0.106-0.16,0.106-0.256s-0.038-0.188-0.106-0.255C3.056,20.964,2.826,20.964,2.685,21.105z"/><path d="M2.685,19.536c-0.068,0.068-0.106,0.159-0.106,0.256s0.038,0.188,0.106,0.256c0.07,0.071,0.163,0.106,0.256,0.106   s0.186-0.035,0.256-0.106c0.068-0.068,0.106-0.16,0.106-0.256s-0.038-0.188-0.106-0.255C3.056,19.395,2.826,19.396,2.685,19.536z"/><path d="M5.195,17.968c-0.141,0.141-0.141,0.371,0,0.512c0.07,0.071,0.163,0.106,0.257,0.106c0.093,0,0.186-0.036,0.256-0.106   c0.141-0.141,0.141-0.371,0-0.512C5.566,17.825,5.335,17.827,5.195,17.968z"/><path d="M5.195,16.399c-0.141,0.141-0.141,0.371,0,0.512c0.07,0.071,0.163,0.106,0.257,0.106c0.093,0,0.186-0.036,0.256-0.106   c0.141-0.141,0.141-0.371,0-0.512C5.566,16.256,5.335,16.257,5.195,16.399z"/><path d="M5.195,14.83c-0.141,0.141-0.141,0.371,0,0.512c0.07,0.071,0.163,0.106,0.257,0.106c0.093,0,0.186-0.036,0.256-0.106   c0.141-0.141,0.141-0.371,0-0.512C5.566,14.688,5.335,14.688,5.195,14.83z"/><path d="M10.471,17.958c0.093,0,0.186-0.035,0.256-0.106c0.068-0.068,0.106-0.16,0.106-0.256s-0.038-0.188-0.106-0.255   c-0.141-0.142-0.371-0.141-0.512,0c-0.068,0.068-0.106,0.159-0.106,0.256s0.038,0.188,0.106,0.256   C10.286,17.923,10.379,17.958,10.471,17.958z"/><path d="M10.471,16.389c0.093,0,0.186-0.035,0.256-0.106c0.068-0.068,0.106-0.16,0.106-0.256s-0.038-0.188-0.106-0.255   c-0.141-0.142-0.371-0.141-0.512,0c-0.068,0.068-0.106,0.159-0.106,0.256s0.038,0.188,0.106,0.256   C10.286,16.354,10.379,16.389,10.471,16.389z"/></g></svg>