<?xml-stylesheet type="text/css" href="/css/svg.css"?><svg xmlns="http://www.w3.org/2000/svg" viewBox="0 0 24 30"><path class="icon__svg" d="M19.07 4.93A10 10 0 004.93 19.07 10 10 0 0019.07 4.93zm-2.81 9.91a1 1 0 010 1.42 1 1 0 01-.71.29 1 1 0 01-.71-.29L12 13.41l-2.84 2.85a1 1 0 01-.71.29 1 1 0 01-.71-.29 1 1 0 010-1.42L10.59 12 7.74 9.16a1 1 0 111.42-1.42L12 10.59l2.84-2.85a1 1 0 111.42 1.42L13.41 12z" data-name="Layer 67"/><text y="39" font-size="5" font-weight="bold" font-family="'Helvetica Neue', Helvetica, Arial-Unicode, Arial, Sans-serif">Created by Caesar Rizky Kurniawan</text><text y="44" font-size="5" font-weight="bold" font-family="'Helvetica Neue', Helvetica, Arial-Unicode, Arial, Sans-serif">from the Noun Project</text></svg>