<?xml-stylesheet type="text/css" href="/css/svg.css"?><svg class="icon__svg" xmlns="http://www.w3.org/2000/svg" viewBox="0 0 32 40"><path d="M3 3h7V1H2a1 1 0 00-1 1v8h2V3zm26 7h2V2a1 1 0 00-1-1h-8v2h7v7zm0 19h-7v2h8a1 1 0 001-1v-8h-2v7zM3 22H1v8a1 1 0 001 1h8v-2H3v-7zm27.866-5.5a.998.998 0 000-1C27.838 10.257 22.142 7 16 7S4.162 10.257 1.134 15.5a.998.998 0 000 1C4.162 21.743 9.858 25 16 25s11.838-3.257 14.866-8.5zM16 23c-5.23 0-10.094-2.668-12.832-7C5.906 11.668 10.77 9 16 9s10.094 2.668 12.832 7C26.094 20.332 21.23 23 16 23z"/><path d="M16 10c-3.309 0-6 2.691-6 6s2.691 6 6 6 6-2.691 6-6-2.691-6-6-6zm0 10c-2.206 0-4-1.794-4-4s1.794-4 4-4 4 1.794 4 4-1.794 4-4 4z"/></svg>