<?xml-stylesheet type="text/css" href="/css/svg.css"?><svg xmlns="http://www.w3.org/2000/svg" viewBox="0 0 100 125"><path class="icon__svg" d="M47.033 2.385a1.25 1.25 0 00-1.23 1.267v9.637a1.25 1.25 0 102.5 0V3.652a1.25 1.25 0 00-1.27-1.267zM31.211 7.377a1.25 1.25 0 00-.842 2.156l6.905 6.725a1.25 1.25 0 101.744-1.791l-6.905-6.725a1.25 1.25 0 00-.902-.365zm31.512 0a1.25 1.25 0 00-.863.365l-6.905 6.725a1.25 1.25 0 101.745 1.79l6.904-6.724a1.25 1.25 0 00-.881-2.156zM47.112 17.439c-3.271 0-6.022 2.543-6.012 5.748l.096 33.34-10.502-9.98a5.38 5.38 0 00-3.705-1.485c-1.325.001-2.634.505-3.606 1.527l-.562.592c-.975 1.026-1.364 2.379-1.258 3.65.106 1.272.652 2.483 1.47 3.52l17.53 22.223c.01.012.067.09.146.207.085.126.178.319.145.229-.015-.04.053.247.078.464.024.206.032.354.033.372v3.796h-2.92c-.992 0-1.769.642-2.213 1.36-.444.717-.662 1.58-.662 2.515v7.442c0 .935.218 1.798.662 2.515.444.718 1.221 1.36 2.213 1.36h40.66c.992 0 1.769-.642 2.213-1.36.444-.717.662-1.58.662-2.515v-7.442c0-.934-.218-1.798-.662-2.515-.444-.718-1.22-1.36-2.213-1.36h-2.734c-.044-1.024-.141-3.657.096-4.959.174-.96.308-1.094.681-1.832.373-.737.886-1.875 1.527-4.248.745-2.756.837-8.3.848-13.439.012-5.138-.135-9.69-.135-9.69.191-3.197-2.536-5.733-5.601-5.733a5.47 5.47 0 00-3.672 1.425c-.896-1.928-2.766-3.289-4.973-3.289-1.392 0-2.65.543-3.615 1.426-.9-1.918-2.764-3.27-4.963-3.27-1.13 0-2.172.36-3.04.967V23.184c0-3.2-2.741-5.744-6.013-5.744zm0 2.5c2.005 0 3.512 1.465 3.512 3.244v27.203a1.25 1.25 0 102.5 0v-4.955a1.25 1.25 0 00.002-.088v-1.465c0-1.919 1.38-3.345 3.039-3.345 1.658 0 3.04 1.426 3.04 3.345v1.625a1.25 1.25 0 00.003.08c-.001.046-.006.091-.006.137v6.477a1.25 1.25 0 102.5 0V45.72c0-1.919 1.382-3.344 3.04-3.344s3.042 1.425 3.042 3.344v1.701a1.25 1.25 0 00.002.055l-.002.035v6.377a1.25 1.25 0 102.5 0v-6.377c0-1.86 1.389-3.271 3.103-3.271 1.71 0 3.259 1.44 3.108 3.162a1.25 1.25 0 00-.004.15s.144 4.518.133 9.606c-.012 5.088-.256 10.926-.76 12.793-.608 2.25-1.014 3.116-1.346 3.771-.332.655-.69 1.3-.91 2.516-.305 1.68-.233 4.093-.164 5.404H43.465v-3.848a1.25 1.25 0 00-.002-.07s-.013-.243-.047-.539-.06-.619-.219-1.045a1.25 1.25 0 000-.002c-.139-.375-.289-.567-.418-.758-.129-.19-.242-.34-.242-.34a1.25 1.25 0 00-.011-.015l-17.53-22.223c-.56-.711-.886-1.503-.943-2.178-.056-.675.1-1.214.58-1.72a1.25 1.25 0 000-.003l.563-.591c.968-1.02 2.622-1.047 3.775.049L40.192 59.02c.058.098.113.2.205.314.255.316.793.8 1.592.762.42-.022.792-.246.994-.453.204-.208.3-.4.375-.569.15-.338.204-.626.248-.896.088-.542.092-1.028.092-1.028a1.25 1.25 0 000-.029l-.098-33.94a1.25 1.25 0 000-.003c-.005-1.774 1.507-3.24 3.512-3.24zm-19.973 3.973a1.25 1.25 0 100 2.5h9.637a1.25 1.25 0 100-2.5h-9.637zm30.139 0a1.25 1.25 0 100 2.5h9.637a1.25 1.25 0 100-2.5h-9.637zm-19.232 60.23h40.66c-.092 0-.055-.056.088.175.143.232.287.68.287 1.2v7.441c0 .52-.144.97-.287 1.201a.805.805 0 01-.133.174h-40.57a.805.805 0 01-.133-.174c-.143-.231-.287-.681-.287-1.2v-7.442c0-.52.144-.968.287-1.2.144-.231.18-.175.088-.175z" color="#000" fill-rule="evenodd" style="font-feature-settings:normal;font-variant-alternates:normal;font-variant-caps:normal;font-variant-ligatures:normal;font-variant-numeric:normal;font-variant-position:normal;isolation:auto;mix-blend-mode:normal;shape-padding:0;text-decoration-color:#000;text-decoration-line:none;text-decoration-style:solid;text-indent:0;text-orientation:mixed;text-transform:none;white-space:normal" paint-order="fill markers stroke"/></svg>