<?xml-stylesheet type="text/css" href="/css/svg.css"?><svg class="icon__svg" xmlns="http://www.w3.org/2000/svg" viewBox="0 0 64 80"><path d="M36 40.4l-.1-.1-.2-.2-.1-.1h-2.2l-1.7 1.7-1.4-1.4 2.3-2.3h2.2c0-.3.1-.7.2-1V18.4l-3-3-3 3V49h6v-4l-.7-.7 1.7-1.7v-2.2z"/><circle cx="43" cy="33" r="2"/><path d="M22 29.1v-3.3c-.7.2-1.3.2-2 0v3.3c.7-.1 1.3-.1 2 0z"/><circle cx="43" cy="22" r="2"/><path d="M53.1 17.5L43 7.4v3.2l8.5 8.5c.4-.7.9-1.2 1.6-1.6zM20 36.9V40c0 .6.4 1 1 1s1-.4 1-1v-3.1c-.7.1-1.3.1-2 0z"/><circle cx="21" cy="33" r="2"/><path d="M44 29.1v-3.3c-.7.2-1.3.2-2 0v3.3c.7-.1 1.3-.1 2 0zm-4.5 5.8l-2.4 2.4c-.4.4-.4 1 0 1.4l.2.2c.4.4 1 .4 1.4 0l2.4-2.4c-.7-.4-1.2-.9-1.6-1.6zM53 57h-9v-5c0-.6-.4-1-1-1H21c-.6 0-1 .4-1 1v5h-9c-.6 0-1 .4-1 1v2h44v-2c0-.6-.4-1-1-1zM10 24.9c-.3 0-.7.1-1 .1-.3 0-.7-.1-1-.1V37c0 .6.4 1 1 1s1-.4 1-1V24.9z"/><circle cx="9" cy="21" r="2"/><circle cx="55" cy="21" r="2"/><path d="M54 24.9V37c0 .6.4 1 1 1s1-.4 1-1V24.9c-.7.1-1.3.1-2 0zM24 12h16c.6 0 1-.4 1-1V5c0-.6-.4-1-1-1H24c-.6 0-1 .4-1 1v6c0 .6.4 1 1 1zm5-5h6v2h-6V7zM12.5 19.1l8.5-8.5V7.4L10.9 17.5c.7.4 1.2.9 1.6 1.6zM33.4 14l6.1 6.1c.4-.7.9-1.2 1.6-1.6L36.6 14h-3.2zm-8.9 6.1l6.1-6.1h-3.2l-4.5 4.5c.7.4 1.2.9 1.6 1.6z"/><circle cx="21" cy="22" r="2"/></svg>