<?xml-stylesheet type="text/css" href="/css/svg.css"?><svg class="icon__svg" xmlns="http://www.w3.org/2000/svg" viewBox="0 0 100 125"><path d="M16.43 53.555l-5.167 1.98L5 50.212l8.85-3.392zm-2.588-10.789l5.292 13.811 22.338-8.559-5.291-13.811z" color="#000"/><path d="M46.738 17.986v45.043h-10.86l-2.212-5.742c1.564-1.221 2.236-3.353 1.489-5.303l-8.649 3.318c.747 1.95 2.628 3.114 4.608 2.977l2.892 7.5h12.732V86h2.75V55.401h13.185l3.46-6.323c1.943.4 3.988-.508 4.99-2.34l-8.138-4.437c-1.001 1.832-.62 4.025.766 5.444l-2.694 4.906H49.488V17.986zm36.486 29.422l4.856 2.655L95 45.627l-8.316-4.547z" color="#000"/><path d="M63.38 24.018l-7.104 12.987c8.747 4.793 15.929 8.685 23.861 13.043l7.103-12.986c-8.746-4.794-15.928-8.685-23.86-13.044z" color="#000"/></svg>