<?xml-stylesheet type="text/css" href="/css/svg.css"?><svg xmlns="http://www.w3.org/2000/svg" viewBox="0 0 26.458 33.073"><path class="icon__svg" d="M13.226.53a.265.265 0 00-.261.268V4.49a.265.265 0 00.53 0V.798a.265.265 0 00-.27-.269zM7.029 2.186a.265.265 0 00-.217.4L8.66 5.785a.265.265 0 10.459-.265L7.27 2.323a.265.265 0 00-.242-.136zm12.393 0a.265.265 0 00-.233.136L17.342 5.52a.265.265 0 10.458.265l1.847-3.198a.265.265 0 00-.225-.4zm-8.912.547a.265.265 0 00-.261.337l.478 1.783a.265.265 0 00.511-.137l-.478-1.783a.265.265 0 00-.25-.2zm5.432 0a.265.265 0 00-.243.2l-.478 1.783a.265.265 0 00.512.137l.478-1.783a.265.265 0 00-.27-.336zM5.782 5.46a.265.265 0 00-.185.455L6.903 7.22a.265.265 0 10.374-.374L5.971 5.539a.265.265 0 00-.19-.08zm14.888 0a.265.265 0 00-.182.08l-1.306 1.306a.265.265 0 10.375.374l1.306-1.305a.265.265 0 00-.193-.455zm-7.44.359c-3.735 0-6.77 3.01-6.77 6.719a6.657 6.657 0 001.984 4.751c.306.304.641.579 1.001.82.314.21.99.742.99 1.864v1.308a.265.265 0 000 .02v1.926c0 1.496 1.233 2.703 2.748 2.703 1.515 0 2.747-1.207 2.747-2.703v-3.254a.265.265 0 00-.003-.053c.024-1.07.76-1.59 1.088-1.81a6.727 6.727 0 002.453-2.955A6.658 6.658 0 0020 12.536c0-3.708-3.035-6.719-6.77-6.719zm0 .529c3.45 0 6.24 2.77 6.24 6.19a6.13 6.13 0 01-.49 2.408 6.198 6.198 0 01-2.261 2.724c-.359.24-1.324.949-1.324 2.303a.265.265 0 00.005.05v1.012h-1.892v-3.08c.605-.1 1.092-.544 1.099-1.126a.265.265 0 000-.012 1.694 1.694 0 01.674-1.357.53.53 0 00.274.076c.295 0 .54-.244.54-.539a.544.544 0 00-.54-.54.544.544 0 00-.54.54v.001a2.241 2.241 0 00-.938 1.82c0 .32-.341.63-.834.63-.491 0-.831-.306-.835-.626a.265.265 0 000-.005c0-.866-.498-1.618-1.223-1.991a2.14 2.14 0 00.706-.647c.058.068.109.145.151.232a.265.265 0 10.475-.233 1.588 1.588 0 00-.988-.837.265.265 0 00-.078-.012.265.265 0 00-.066.52c.025.007.05.014.074.024a1.601 1.601 0 01-1.33.701 1.595 1.595 0 01-1.478-2.214 1.596 1.596 0 01.966-.891 1.615 1.615 0 001.39 1.473.265.265 0 10.073-.525 1.11 1.11 0 01-.373-.124.86.86 0 00.155-.067c.362-.19.558-.6.456-.999a.828.828 0 00-.296-.462.265.265 0 00-.172-.059.265.265 0 00-.156.475.302.302 0 01.11.167l.002.005.002.005c.034.132-.055.332-.191.403l-.004.002-.004.002a.367.367 0 01-.397-.04 1.085 1.085 0 01.743-1.436 1.09 1.09 0 011.258.565.265.265 0 10.473-.236 1.59 1.59 0 00-.17-.27c-.01-.014-.022-.027-.033-.04.277-.172.574-.228.856-.154.32.085.57.324.719.675a.265.265 0 00.002.002.265.265 0 00.003.005.78.78 0 01.059.486.452.452 0 01-.202.307.265.265 0 10.266.458.985.985 0 00.453-.652 1.3 1.3 0 00-.088-.803.265.265 0 00-.004-.013 1.94 1.94 0 00-.094-.189 1.597 1.597 0 011.958 1.327 1.48 1.48 0 00-.461.105.265.265 0 00-.06.025.265.265 0 00-.05.033.227.227 0 01-.163.035.266.266 0 01-.212-.307.262.262 0 01.1-.175.265.265 0 00-.155-.477.265.265 0 00-.165.056.796.796 0 00-.304.52.799.799 0 00.653.906.76.76 0 00.547-.123c.217-.09.464-.1.701-.007a.946.946 0 01.339 1.537.533.533 0 00-.288-.086.543.543 0 00-.539.54c0 .294.244.539.54.539.283 0 .52-.227.537-.506.19-.156.344-.36.44-.605a1.482 1.482 0 00-.92-1.942 2.134 2.134 0 00-2.85-1.842 1.5 1.5 0 00-.626-.343 1.514 1.514 0 00-.743-.005 1.853 1.853 0 00-.664.314c-.006-.002-.012-.007-.018-.01a1.624 1.624 0 00-2.374.966 2.126 2.126 0 00-1.677 2.074c0 1.17.958 2.122 2.131 2.123a.265.265 0 00.03.002c.952 0 1.717.76 1.722 1.703a.265.265 0 000 .01c0 .587.49 1.035 1.1 1.137v3.08h-2.014v-1.06a.265.265 0 000-.002c0-1.34-.846-2.05-1.225-2.303a6.196 6.196 0 01-2.26-2.724 6.125 6.125 0 01-.49-2.408c0-3.42 2.79-6.19 6.24-6.19zm-10.712.37a.265.265 0 00-.14.495l3.2 1.846a.265.265 0 10.265-.458l-3.2-1.846a.265.265 0 00-.125-.037zm21.442 0a.265.265 0 00-.144.037l-3.2 1.846a.265.265 0 10.266.459l3.198-1.847a.265.265 0 00-.12-.495zM3.05 10.179a.265.265 0 00-.06.521l1.784.478a.265.265 0 10.137-.511l-1.784-.478a.265.265 0 00-.078-.01zm20.352 0a.265.265 0 00-.07.01l-1.784.478a.265.265 0 10.137.51l1.784-.477a.265.265 0 00-.067-.521zM12.297 11.44a.265.265 0 00-.252.187 1.83 1.83 0 00.094 1.337c.206.44.559.766.967.935a.265.265 0 10.202-.49 1.329 1.329 0 01-.713-.722 1.55 1.55 0 00.817-.278.265.265 0 00-.139-.483.265.265 0 00-.167.051 1.024 1.024 0 01-.616.182c.002-.129.021-.253.059-.37a.265.265 0 00-.252-.349zm-2.823.844a.265.265 0 00-.187.068 1.045 1.045 0 001.378 1.57.265.265 0 10-.35-.396.507.507 0 01-.723-.05.513.513 0 01.045-.727.265.265 0 00-.163-.465zm4.708.255a.265.265 0 00-.228.378c.106.232.255.438.438.602a1.44 1.44 0 00-.423.729.265.265 0 10.515.122.892.892 0 01.368-.54.265.265 0 00.021-.015c.072.027.147.05.224.065.521.107 1.048-.072 1.467-.418a.265.265 0 10-.336-.409c-.323.266-.686.378-1.025.309-.338-.07-.603-.304-.767-.664a.265.265 0 00-.254-.158zm-9.632.365a.265.265 0 00-.003 0H.853a.265.265 0 100 .529h3.694a.265.265 0 10.003-.53zm21.06 0a.265.265 0 00-.004 0h-3.694a.265.265 0 100 .529h3.694a.265.265 0 10.003-.53zm-13.028 1.948a.265.265 0 00-.266.263c-.01.51.415.927.928.932a.943.943 0 00.958-.909.265.265 0 00-.53-.01.408.408 0 01-.423.39c-.237-.002-.408-.179-.404-.393a.265.265 0 00-.263-.273zm-7.737.297a.265.265 0 00-.07.01l-1.785.478a.265.265 0 10.137.511l1.784-.478a.265.265 0 00-.066-.521zm16.761 0a.265.265 0 00-.058.521l1.784.478a.265.265 0 00.137-.511l-1.784-.478a.265.265 0 00-.079-.01zm-10.641 6.414H15.4v1.663c0 1.206-.983 2.173-2.218 2.173-1.236 0-2.218-.967-2.218-2.173zm.669.945a.265.265 0 000 .529h3.098a.265.265 0 100-.53zm2.68 1.166a.265.265 0 00-.004 0h-2.256a.265.265 0 100 .529h2.256a.265.265 0 10.003-.529z" style="line-height:normal;font-variant-ligatures:normal;font-variant-position:normal;font-variant-caps:normal;font-variant-numeric:normal;font-variant-alternates:normal;font-feature-settings:normal;text-indent:0;text-align:start;text-decoration-line:none;text-decoration-style:solid;text-decoration-color:#000;text-transform:none;text-orientation:mixed;white-space:normal;shape-padding:0;isolation:auto;mix-blend-mode:normal;solid-color:#000;solid-opacity:1" color="#000" font-weight="400" font-family="sans-serif" overflow="visible"/></svg>