<?xml-stylesheet type="text/css" href="/css/svg.css"?><svg xmlns="http://www.w3.org/2000/svg" viewBox="0 0 100 125"><path class="icon__svg" style="text-indent:0;text-transform:none;block-progression:tb" d="M49.797 16.005a2 2 0 00-.906.344l-4.907 3.313-5.812-1.188a2 2 0 00-2.094.844l-3.25 4.969-5.812 1.125a2 2 0 00-1.594 1.593l-1.125 5.813-4.969 3.25a2 2 0 00-.844 2.094l1.188 5.812-3.313 4.906a2 2 0 000 2.25l3.313 4.875-1.188 5.813a2 2 0 00.844 2.094l4.969 3.25 1.125 5.812a2 2 0 001.594 1.594l5.812 1.125 3.25 4.969a2 2 0 002.094.843l5.812-1.187 4.907 3.312a2 2 0 001.125.375 2 2 0 001.125-.375l4.906-3.312 5.781 1.187a2 2 0 002.094-.843l3.25-4.97 5.812-1.124a2 2 0 001.594-1.594l1.125-5.812 4.969-3.25a2 2 0 00.844-2.094l-1.188-5.813 3.313-4.875a2 2 0 000-2.25l-3.313-4.906 1.188-5.812a2 2 0 00-.844-2.094l-4.969-3.25-1.125-5.813a2 2 0 00-1.594-1.593l-5.812-1.125-3.25-4.97a2 2 0 00-2.094-.843l-5.781 1.188-4.906-3.313a2 2 0 00-1.344-.344zm.219 4.407l4.468 3.062a2 2 0 001.563.313l5.25-1.125 2.969 4.53a2 2 0 001.312.876l5.344 1 1 5.344a2 2 0 00.875 1.312l4.531 2.969-1.125 5.281a2 2 0 00.313 1.563l3.062 4.468-3.062 4.438a2 2 0 00-.313 1.562l1.125 5.282-4.531 2.968a2 2 0 00-.875 1.313l-1 5.344-5.344 1a2 2 0 00-1.312.875l-2.97 4.53-5.25-1.124a2 2 0 00-1.562.312l-4.468 3.063-4.47-3.063a2 2 0 00-1.562-.312l-5.281 1.125-2.969-4.531a2 2 0 00-1.312-.875l-5.344-1-1-5.344a2 2 0 00-.875-1.313l-4.531-2.968 1.125-5.282a2 2 0 00-.313-1.562l-3.062-4.438 3.062-4.468a2 2 0 00.313-1.563l-1.125-5.281 4.531-2.969a2 2 0 00.875-1.312l1-5.344 5.344-1a2 2 0 001.312-.875l2.969-4.531 5.281 1.125a2 2 0 001.563-.313l4.469-3.062zm0 5.593c-13.231 0-24 10.77-24 24 0 13.232 10.769 24 24 24 13.23 0 24-10.768 24-24 0-13.23-10.77-24-24-24zm0 4c11.07 0 20 8.931 20 20 0 11.07-8.93 20-20 20s-20-8.93-20-20c0-11.069 8.93-20 20-20zm10.406 9.938l-13 13.875-6.813-6.063-4 4.47 9 8 2.188 1.937 2-2.125 15-16-4.375-4.094z" overflow="visible" color="#000"/></svg>