<?xml-stylesheet type="text/css" href="/css/svg.css"?>
<svg xmlns="http://www.w3.org/2000/svg" xmlns:cc="http://creativecommons.org/ns#" xmlns:dc="http://purl.org/dc/elements/1.1/" xmlns:rdf="http://www.w3.org/1999/02/22-rdf-syntax-ns#" version="1.1" viewBox="0 0 100 125" x="0px" y="0px"><path class="icon__svg" d="m47.033 2.3848a1.2501 1.2501 0 0 0-1.2305 1.2676v9.6367a1.2501 1.2501 0 1 0 2.5 0v-9.6367a1.2501 1.2501 0 0 0-1.2695-1.2676zm-15.822 4.9922a1.2501 1.2501 0 0 0-0.8418 2.1562l6.9043 6.7246a1.2501 1.2501 0 1 0 1.7441-1.791l-6.9043-6.7246a1.2501 1.2501 0 0 0-0.90234-0.36523zm31.512 0a1.2501 1.2501 0 0 0-0.86328 0.36523l-6.9043 6.7246a1.2501 1.2501 0 1 0 1.7441 1.791l6.9043-6.7246a1.2501 1.2501 0 0 0-0.88086-2.1562zm-15.611 10.062c-3.2713 0-6.0215 2.5428-6.0117 5.748l0.095703 33.34-10.502-9.9805c-1.0381-0.98607-2.3802-1.4857-3.7051-1.4844-1.3249 0.0013-2.6342 0.50508-3.6055 1.5273l-0.5625 0.5918c-0.97445 1.0255-1.3641 2.3786-1.2578 3.6504 0.10624 1.2718 0.65229 2.482 1.4707 3.5195l17.529 22.223c0.0094 0.0124 0.06764 0.09047 0.14648 0.20703 0.08491 0.12554 0.17791 0.31839 0.14453 0.22852-0.01483-0.03998 0.052845 0.24709 0.078125 0.46484 0.02389 0.20584 0.032143 0.35337 0.033203 0.37109v3.7969h-2.9199c-0.99199 0-1.7688 0.64192-2.2129 1.3594-0.44414 0.71745-0.66211 1.5808-0.66211 2.5156v7.4414c0 0.93478 0.21797 1.7982 0.66211 2.5156 0.44414 0.71745 1.2209 1.3594 2.2129 1.3594h40.66c0.99199 0 1.7688-0.64192 2.2129-1.3594 0.44414-0.71745 0.66211-1.5808 0.66211-2.5156v-7.4414c0-0.93478-0.21797-1.7982-0.66211-2.5156-0.44414-0.71745-1.2209-1.3594-2.2129-1.3594h-2.7344c-0.043406-1.0241-0.14088-3.657 0.095703-4.959 0.17434-0.95987 0.3084-1.0949 0.68164-1.832 0.37324-0.7371 0.88618-1.8752 1.5273-4.248 0.74469-2.7561 0.83621-8.301 0.84766-13.439 0.01145-5.1384-0.13477-9.6914-0.13477-9.6914 0.1906-3.1962-2.5368-5.7324-5.6016-5.7324-1.4098 0-2.69 0.54282-3.6719 1.4258-0.89563-1.9287-2.766-3.2891-4.9727-3.2891-1.3919 0-2.6494 0.54281-3.6152 1.4258-0.89954-1.918-2.7644-3.2695-4.9629-3.2695-1.1302 0-2.1718 0.35981-3.041 0.9668v-15.816c0-3.2007-2.7404-5.7441-6.0117-5.7441zm0 2.5c2.005 0 3.5117 1.4651 3.5117 3.2441v27.203a1.2501 1.2501 0 1 0 2.5 0v-4.9551a1.2501 1.2501 0 0 0 0.001953-0.087891v-1.4648c0-1.9191 1.3805-3.3457 3.0391-3.3457 1.6586 0 3.041 1.4266 3.041 3.3457v1.625a1.2501 1.2501 0 0 0 0.001953 0.080078c-0.001027 0.045879-0.005859 0.090622-0.005859 0.13672v6.4766a1.2501 1.2501 0 1 0 2.5 0v-6.4766c0-1.9191 1.3824-3.3438 3.041-3.3438s3.041 1.4247 3.041 3.3438v1.7012a1.2501 1.2501 0 0 0 0.001953 0.054687c-7e-5 0.011846-0.001953 0.023296-0.001953 0.035157v6.377a1.2501 1.2501 0 1 0 2.5 0v-6.377c0-1.86 1.389-3.2715 3.1035-3.2715 1.7105 0 3.2587 1.4405 3.1074 3.1621a1.2501 1.2501 0 0 0-0.003907 0.15039s0.14415 4.5175 0.13281 9.6055c-0.01134 5.0879-0.25521 10.926-0.75977 12.793-0.60812 2.2506-1.014 3.1163-1.3457 3.7715-0.33175 0.65516-0.68946 1.3005-0.91016 2.5156-0.30492 1.68-0.23286 4.0931-0.16406 5.4043h-29.979v-3.8477a1.2501 1.2501 0 0 0-0.001953-0.070313s-0.012525-0.24306-0.046875-0.53906-0.06067-0.61887-0.21875-1.0449a1.2501 1.2501 0 0 0 0-0.001953c-0.1392-0.37485-0.28902-0.56717-0.41797-0.75781-0.12895-0.19064-0.24219-0.33984-0.24219-0.33984a1.2501 1.2501 0 0 0-0.011718-0.015625l-17.529-22.223c-0.56108-0.71128-0.88695-1.5025-0.94336-2.1777-0.05641-0.67526 0.09891-1.2143 0.58008-1.7207a1.2501 1.2501 0 0 0 0-0.001953l0.5625-0.5918c0.96844-1.0192 2.6222-1.0466 3.7754 0.048828l11.221 10.662c0.057679 0.098969 0.11283 0.19991 0.20508 0.31445 0.25451 0.31603 0.79263 0.80096 1.5918 0.76172 0.42043-0.02121 0.7915-0.24593 0.99414-0.45312 0.20345-0.20802 0.30037-0.39912 0.375-0.56836 0.14926-0.33848 0.20426-0.62584 0.24805-0.89648 0.08758-0.54129 0.091797-1.0273 0.091797-1.0273a1.2501 1.2501 0 0 0 0-0.029297l-0.097657-33.941a1.2501 1.2501 0 0 0 0-0.001953c-0.0054-1.7744 1.5067-3.2402 3.5117-3.2402zm-19.973 3.9727a1.2501 1.2501 0 1 0 0 2.5h9.6367a1.2501 1.2501 0 1 0 0-2.5h-9.6367zm30.139 0a1.2501 1.2501 0 1 0 0 2.5h9.6367a1.2501 1.2501 0 1 0 0-2.5h-9.6367zm-19.232 60.23h40.66c-0.09174 0-0.055409-0.0557 0.087891 0.17578 0.1433 0.23148 0.28711 0.67975 0.28711 1.1992v7.4414c0 0.51947-0.14381 0.96969-0.28711 1.2012-0.07165 0.11574-0.11728 0.15931-0.13281 0.17383h-40.57c-0.015528-0.014521-0.061163-0.058084-0.13281-0.17383-0.1433-0.23148-0.28711-0.6817-0.28711-1.2012v-7.4414c0-0.51947 0.14381-0.96773 0.28711-1.1992 0.1433-0.23148 0.17963-0.17578 0.087891-0.17578z" color="#000000" color-rendering="auto" dominant-baseline="auto" fill-rule="evenodd" image-rendering="auto" shape-rendering="auto" solid-color="#000000" style="font-feature-settings:normal;font-variant-alternates:normal;font-variant-caps:normal;font-variant-ligatures:normal;font-variant-numeric:normal;font-variant-position:normal;isolation:auto;mix-blend-mode:normal;paint-order:fill markers stroke;shape-padding:0;text-decoration-color:#000000;text-decoration-line:none;text-decoration-style:solid;text-indent:0;text-orientation:mixed;text-transform:none;white-space:normal;"/></svg>