<?xml-stylesheet type="text/css" href="/css/svg.css"?>
<svg xmlns:dc="http://purl.org/dc/elements/1.1/" xmlns:cc="http://creativecommons.org/ns#" xmlns:rdf="http://www.w3.org/1999/02/22-rdf-syntax-ns#" xmlns:svg="http://www.w3.org/2000/svg" xmlns="http://www.w3.org/2000/svg" xmlns:sodipodi="http://sodipodi.sourceforge.net/DTD/sodipodi-0.dtd" xmlns:inkscape="http://www.inkscape.org/namespaces/inkscape" viewBox="0 0 26.458333 33.0729175" version="1.1" x="0px" y="0px"><g transform="translate(131.02975,-196.70833)"><path class="icon__svg" d="m -117.80418,197.23755 a 0.26469959,0.26457659 0 0 0 -0.26064,0.26837 v 3.69214 a 0.26473883,0.2646158 0 0 0 0.52945,0 v -3.69214 a 0.26469959,0.26457659 0 0 0 -0.26881,-0.26837 z m -6.19625,1.65799 a 0.26469959,0.26457659 0 0 0 -0.21721,0.40004 l 1.84712,3.19765 a 0.26471356,0.26459053 0 1 0 0.45833,-0.26488 l -1.84672,-3.19723 a 0.26469959,0.26457659 0 0 0 -0.24153,-0.13556 z m 12.3929,0 a 0.26469959,0.26457659 0 0 0 -0.23336,0.13556 l -1.84702,3.19723 a 0.26471187,0.26458884 0 1 0 0.45833,0.26487 l 1.84712,-3.19764 a 0.26469959,0.26457659 0 0 0 -0.22508,-0.40005 z m -8.91245,0.54687 a 0.26469959,0.26457659 0 0 0 -0.26095,0.33669 l 0.47786,1.78293 a 0.26473494,0.26461191 0 0 0 0.51145,-0.13678 l -0.47785,-1.78334 a 0.26469959,0.26457659 0 0 0 -0.25051,-0.19945 z m 5.43201,4.9e-4 a 0.26469959,0.26457659 0 0 0 -0.24236,0.19921 l -0.47827,1.78334 a 0.26477709,0.26465403 0 0 0 0.51157,0.13677 l 0.47785,-1.78293 a 0.26469959,0.26457659 0 0 0 -0.2688,-0.33637 z m -10.16057,2.72467 a 0.26469959,0.26457659 0 0 0 -0.18443,0.45427 l 1.30629,1.30529 a 0.26472028,0.26459728 0 1 0 0.37437,-0.37419 l -1.30629,-1.3053 a 0.26469959,0.26457659 0 0 0 -0.18995,-0.0802 z m 14.88912,0 a 0.26469959,0.26457659 0 0 0 -0.18218,0.0802 l -1.30589,1.30529 a 0.2647224,0.26459937 0 1 0 0.37437,0.3742 l 1.30589,-1.3053 a 0.26469959,0.26457659 0 0 0 -0.19218,-0.45426 z m -7.44042,0.35857 c -3.73443,0 -6.76953,3.0102 -6.76953,6.71876 0,0.92714 0.18944,1.81191 0.53223,2.61605 0.34279,0.80412 0.83882,1.52793 1.45127,2.13561 0.30621,0.30386 0.64142,0.5784 1.00151,0.81981 0.31379,0.21038 0.99015,0.74221 0.99015,1.86351 v 1.30828 a 0.26469959,0.26457659 0 0 0 0,0.0194 v 1.92716 c 0,1.49532 1.23251,2.70276 2.74744,2.70276 1.5149,0 2.74702,-1.20744 2.74702,-2.70276 v -1.92716 -1.32711 a 0.26469959,0.26457659 0 0 0 -0.003,-0.0532 c 0.0238,-1.07078 0.76014,-1.59057 1.08795,-1.81031 0.36011,-0.24147 0.6956,-0.51594 1.00182,-0.81981 0.61244,-0.60768 1.10816,-1.33148 1.45096,-2.1356 0.34277,-0.80414 0.53213,-1.68891 0.53213,-2.61605 0,-3.70857 -3.03458,-6.71876 -6.76901,-6.71876 z m 0,0.52921 c 3.45045,0 6.23996,2.76904 6.23996,6.18955 0,0.85511 -0.17452,1.66846 -0.49003,2.40864 -0.31554,0.7402 -0.77244,1.40698 -1.33712,1.96729 -0.28235,0.28013 -0.59177,0.53368 -0.92379,0.75624 -0.35886,0.2405 -1.32346,0.94917 -1.32346,2.30281 a 0.2647378,0.26461477 0 0 0 0.005,0.0513 v 1.01158 h -1.89283 v -3.07952 c 0.60489,-0.10155 1.09275,-0.54496 1.09891,-1.1265 a 0.2647378,0.26461477 0 0 0 0,-0.0121 c 0,-0.23687 0.0479,-0.4611 0.13481,-0.6655 0.087,-0.20456 0.21303,-0.38865 0.36889,-0.54369 0.0535,-0.0532 0.11069,-0.10252 0.17079,-0.14844 0.0806,0.0484 0.17426,0.0765 0.27386,0.0765 0.29487,0 0.5396,-0.24425 0.5396,-0.53893 0,-0.29466 -0.24473,-0.53944 -0.5396,-0.53944 -0.29485,0 -0.53967,0.24478 -0.53967,0.53944 0,4.8e-4 0,6.4e-4 0,9.8e-4 -0.0989,0.0709 -0.19222,0.14916 -0.27822,0.23468 -0.20359,0.20236 -0.36853,0.44372 -0.48262,0.71199 -0.11408,0.2683 -0.17741,0.56383 -0.17741,0.87251 0,0.32152 -0.34105,0.63037 -0.83424,0.63037 -0.49072,0 -0.83091,-0.30576 -0.83436,-0.62551 a 0.2647378,0.26461477 0 0 0 1.2e-4,-0.005 c 0,-0.86617 -0.49829,-1.61876 -1.22339,-1.99125 0.16597,-0.0943 0.31835,-0.20941 0.45242,-0.34278 0.0937,-0.0933 0.17868,-0.19532 0.25383,-0.30455 0.0573,0.0683 0.10825,0.14552 0.15093,0.23225 a 0.26469959,0.26457659 0 1 0 0.47519,-0.23322 c -0.2091,-0.42516 -0.57344,-0.71875 -0.9886,-0.83655 a 0.26469959,0.26457659 0 0 0 -0.0781,-0.0122 0.26469959,0.26457659 0 0 0 -0.066,0.51981 c 0.025,0.007 0.0496,0.0146 0.074,0.0243 -0.0572,0.0838 -0.12256,0.16228 -0.19447,0.23394 -0.29056,0.28895 -0.69006,0.4671 -1.13509,0.4671 -0.89009,0 -1.60448,-0.71139 -1.60448,-1.59434 0,-0.22083 0.0448,-0.42937 0.12581,-0.61983 0.081,-0.19046 0.19816,-0.36251 0.34346,-0.50698 0.14528,-0.14455 0.31845,-0.26145 0.51033,-0.34215 0.0368,-0.0146 0.0747,-0.0292 0.11279,-0.042 0.007,0.0952 0.0231,0.19095 0.0486,0.28644 0.1145,0.43032 0.39483,0.77623 0.75339,0.98351 0.17929,0.10373 0.37865,0.17321 0.58734,0.2026 a 0.26475833,0.2646353 0 1 0 0.0734,-0.52413 c -0.13169,-0.0194 -0.25771,-0.0615 -0.37281,-0.12463 0.0528,-0.017 0.10463,-0.0391 0.15445,-0.0668 0.36231,-0.18974 0.55859,-0.60069 0.45688,-0.99837 -0.0438,-0.18901 -0.1531,-0.34944 -0.29663,-0.46243 a 0.26469959,0.26457659 0 0 0 -0.17151,-0.0588 h -1.1e-4 a 0.26469959,0.26457659 0 0 0 -0.15592,0.47453 c 0.0561,0.0442 0.0952,0.10446 0.10939,0.16762 l 0.002,0.005 0.002,0.005 c 0.0344,0.13167 -0.0545,0.33165 -0.19075,0.4023 l -0.004,0.002 -0.004,0.002 c -0.12436,0.0697 -0.30554,0.0445 -0.39659,-0.0401 -0.0126,-0.0338 -0.0238,-0.0685 -0.0333,-0.10398 -0.15529,-0.58353 0.18949,-1.17619 0.77602,-1.33184 0.14664,-0.0389 0.29264,-0.0462 0.43297,-0.0265 0.14037,0.0194 0.27475,0.0666 0.39578,0.13653 0.12106,0.07 0.2286,0.16301 0.31534,0.27459 0.0434,0.0556 0.0815,0.11588 0.11374,0.1805 a 0.26469959,0.26457659 0 1 0 0.47362,-0.23589 c -0.048,-0.0965 -0.10493,-0.18658 -0.16957,-0.26952 -0.0109,-0.0146 -0.0224,-0.0274 -0.0336,-0.041 0.27703,-0.17127 0.57423,-0.22763 0.85532,-0.15329 0.32014,0.0845 0.57023,0.324 0.71937,0.67451 a 0.26472994,0.26460691 0 0 0 0.002,0.002 0.26469959,0.26457659 0 0 0 0.003,0.005 c 0.0697,0.14916 0.0939,0.32716 0.059,0.48592 -0.0349,0.15888 -0.11501,0.25736 -0.20171,0.30775 a 0.26485601,0.26473296 0 1 0 0.26612,0.45779 c 0.22719,-0.13192 0.39006,-0.36754 0.45252,-0.65187 0.0608,-0.27685 0.0216,-0.5589 -0.0881,-0.80369 a 0.26472994,0.26460691 0 0 0 -0.004,-0.0121 c -0.0277,-0.0651 -0.0591,-0.12827 -0.0933,-0.18925 0.11833,-0.0277 0.2417,-0.0428 0.36918,-0.0428 0.81323,0 1.47967,0.59393 1.58877,1.3699 -0.15968,0.01 -0.31566,0.0454 -0.46184,0.10446 a 0.26469959,0.26457659 0 0 0 -0.0601,0.0257 0.26469959,0.26457659 0 0 0 -0.0488,0.0321 c -0.0479,0.0311 -0.10281,0.0452 -0.16356,0.0355 -0.13513,-0.0219 -0.23422,-0.15427 -0.21214,-0.30703 0.0109,-0.0765 0.0494,-0.1358 0.1008,-0.17491 a 0.26469959,0.26457659 0 0 0 -0.15592,-0.47732 0.26469959,0.26457659 0 0 0 -0.16449,0.0561 c -0.16007,0.12171 -0.27351,0.3067 -0.30437,0.52029 -0.0617,0.42723 0.22622,0.8374 0.65257,0.90538 0.1977,0.0316 0.39254,-0.017 0.54755,-0.12244 0.21643,-0.0899 0.46403,-0.10009 0.70087,-0.007 0.48646,0.19167 0.72496,0.73753 0.53461,1.22716 -0.0464,0.11929 -0.11382,0.22302 -0.19603,0.30929 -0.0836,-0.0534 -0.18217,-0.0853 -0.2874,-0.0853 -0.29487,0 -0.53917,0.24475 -0.53917,0.53943 0,0.29466 0.2443,0.53901 0.53917,0.53901 0.28366,0 0.5204,-0.22642 0.53803,-0.50584 0.18992,-0.15573 0.34394,-0.36074 0.43888,-0.60494 0.29366,-0.75541 -0.0805,-1.61445 -0.83383,-1.91118 -0.0284,-0.0121 -0.0571,-0.0219 -0.0858,-0.0304 -0.0807,-1.0979 -1.00578,-1.96781 -2.12783,-1.96781 -0.25294,0 -0.49628,0.0442 -0.72216,0.12511 -0.17661,-0.15985 -0.38682,-0.2801 -0.6256,-0.34309 -0.24827,-0.0656 -0.50056,-0.0627 -0.74243,-0.005 -0.23628,0.0564 -0.46223,0.16519 -0.66467,0.31423 -0.006,-0.002 -0.0117,-0.007 -0.0175,-0.01 -0.17929,-0.10374 -0.37825,-0.17297 -0.58693,-0.20237 -0.20871,-0.0294 -0.4272,-0.017 -0.64277,0.0391 -0.57308,0.15208 -0.99391,0.59619 -1.14473,1.12951 -0.12924,0.0279 -0.25451,0.0675 -0.37384,0.11758 -0.25541,0.10738 -0.48492,0.26276 -0.67792,0.45468 -0.19299,0.19192 -0.34941,0.42057 -0.45759,0.67492 -0.10818,0.25433 -0.16799,0.53422 -0.16799,0.82681 0,1.16967 0.9581,2.12232 2.13185,2.12343 a 0.2647378,0.26461477 0 0 0 0.0302,0.002 c 0.95178,0 1.71692,0.75883 1.72151,1.70222 a 0.26469959,0.26457659 0 0 0 0,0.01 c 0,0.58691 0.49056,1.03527 1.09922,1.13757 v 3.07953 h -2.01359 v -1.06007 a 0.26469959,0.26457659 0 0 0 0,-0.002 c 0,-1.33943 -0.846,-2.04924 -1.22431,-2.30282 -0.33201,-0.22253 -0.64133,-0.4761 -0.92367,-0.75626 -0.56467,-0.56028 -1.02129,-1.22709 -1.3368,-1.96727 -0.31553,-0.7402 -0.49008,-1.55352 -0.49008,-2.40863 2e-5,-3.42052 2.78967,-6.18955 6.2401,-6.18955 z m -10.71192,0.36995 a 0.26469959,0.26457659 0 0 0 -0.13906,0.49522 l 3.19914,1.84627 a 0.26478177,0.26465871 0 1 0 0.26456,-0.45852 l -3.19914,-1.84588 a 0.26469959,0.26457659 0 0 0 -0.1255,-0.0372 z m 21.44204,0 a 0.26469959,0.26457659 0 0 0 -0.14413,0.0372 l -3.19914,1.84587 a 0.26487739,0.26475431 0 1 0 0.26489,0.45852 l 3.19881,-1.84626 a 0.26469959,0.26457659 0 0 0 -0.12044,-0.49523 z m -20.91093,3.462 a 0.26469959,0.26457659 0 0 0 -0.0586,0.52103 l 1.78375,0.47776 a 0.26469959,0.26457659 0 1 0 0.13718,-0.51092 l -1.78416,-0.47764 a 0.26469959,0.26457659 0 0 0 -0.0781,-0.01 z m 20.35336,0 a 0.26469959,0.26457659 0 0 0 -0.0703,0.01 l -1.78428,0.47764 a 0.26469959,0.26457659 0 1 0 0.13719,0.51092 l 1.78386,-0.47774 a 0.26469959,0.26457659 0 0 0 -0.0665,-0.52105 z m -11.10532,1.26116 a 0.26469959,0.26457659 0 0 0 -0.25206,0.18706 c -0.13507,0.41901 -0.11199,0.89718 0.0938,1.33692 0.20579,0.43976 0.55862,0.76595 0.96752,0.9347 a 0.26469959,0.26457659 0 1 0 0.202,-0.48901 c -0.28586,-0.11806 -0.54018,-0.34934 -0.69002,-0.66953 -0.008,-0.017 -0.016,-0.0355 -0.0236,-0.0534 0.30153,-0.0146 0.58482,-0.1137 0.81708,-0.27787 a 0.26469959,0.26457659 0 0 0 -0.13874,-0.48272 0.26469959,0.26457659 0 0 0 -0.16685,0.0508 c -0.16821,0.11879 -0.38514,0.18778 -0.6163,0.18147 0.002,-0.12827 0.0211,-0.25285 0.0587,-0.36936 a 0.26469959,0.26457659 0 0 0 -0.25165,-0.34917 z m -2.82363,0.84366 a 0.26469959,0.26457659 0 0 0 -0.1864,0.0685 c -0.42985,0.37852 -0.4711,1.04159 -0.0934,1.4728 0.37773,0.43121 1.04137,0.47618 1.47121,0.0977 a 0.26484705,0.26472399 0 1 0 -0.35017,-0.39725 c -0.21439,0.18876 -0.53291,0.16811 -0.72288,-0.0488 -0.19,-0.21694 -0.16942,-0.53883 0.045,-0.72764 a 0.26469959,0.26457659 0 0 0 -0.16335,-0.46522 z m 4.70861,0.25545 a 0.26469959,0.26457659 0 0 0 -0.22778,0.37731 c 0.10583,0.232 0.25421,0.43857 0.43733,0.60267 -0.21376,0.19605 -0.35694,0.45364 -0.42244,0.72844 a 0.26471661,0.26459357 0 1 0 0.51498,0.12269 c 0.0528,-0.22156 0.18145,-0.41793 0.36733,-0.54088 a 0.26469959,0.26457659 0 0 0 0.0219,-0.0146 c 0.072,0.0272 0.14647,0.0496 0.22391,0.0653 0.52097,0.1064 1.0473,-0.0726 1.46688,-0.41831 a 0.26469959,0.26457659 0 1 0 -0.33642,-0.4085 c -0.32308,0.26611 -0.68605,0.3776 -1.02457,0.30846 -0.33855,-0.0692 -0.60318,-0.30416 -0.76704,-0.66354 a 0.26469959,0.26457659 0 0 0 -0.25402,-0.1579 z m -9.63255,0.3647 a 0.26469959,0.26457659 0 0 0 -0.003,0 h -3.69385 a 0.26469959,0.26457659 0 1 0 0,0.52889 h 3.69385 a 0.26469959,0.26457659 0 1 0 0.003,-0.52899 z m 21.05949,0 a 0.26469959,0.26457659 0 0 0 -0.003,0 h -3.69385 a 0.26469959,0.26457659 0 1 0 0,0.52889 h 3.69385 a 0.26469959,0.26457659 0 1 0 0.003,-0.52899 z m -13.02749,1.94795 a 0.26469959,0.26457659 0 0 0 -0.26571,0.2632 c -0.01,0.5099 0.41469,0.9267 0.9277,0.93151 0.51298,0.005 0.94868,-0.39856 0.95851,-0.90845 a 0.26478757,0.26466454 0 0 0 -0.52945,-0.01 c -0.004,0.21402 -0.18753,0.39164 -0.424,0.38938 -0.23645,-0.002 -0.40775,-0.17808 -0.40362,-0.39218 a 0.26469959,0.26457659 0 0 0 -0.26343,-0.27332 z m -7.73653,0.29721 a 0.26469959,0.26457659 0 0 0 -0.0708,0.01 l -1.78375,0.47764 a 0.26476831,0.2646453 0 1 0 0.13678,0.5113 l 1.78416,-0.47805 a 0.26469959,0.26457659 0 0 0 -0.0664,-0.52102 z m 16.76146,0 a 0.26469959,0.26457659 0 0 0 -0.0586,0.52103 l 1.78427,0.47807 a 0.26476894,0.26464591 0 0 0 0.13678,-0.51133 l -1.78386,-0.47764 a 0.26469959,0.26457659 0 0 0 -0.0786,-0.01 z m -10.64182,6.414 h 4.43585 v 1.66272 c 0,1.20632 -0.98224,2.17355 -2.21797,2.17355 -1.23575,0 -2.21788,-0.96723 -2.21788,-2.17355 z m 0.66892,0.94441 a 0.26473883,0.2646158 0 0 0 0,0.52921 h 3.09791 a 0.26473883,0.2646158 0 1 0 0,-0.52921 z m 2.67951,1.1666 a 0.26469959,0.26457659 0 0 0 -0.003,0 h -2.25583 a 0.26469959,0.26457659 0 1 0 0,0.5288 h 2.25583 a 0.26469959,0.26457659 0 1 0 0.003,-0.5289 z" style="color:#000000;font-style:normal;font-variant:normal;font-weight:normal;font-stretch:normal;font-size:medium;line-height:normal;font-family:sans-serif;font-variant-ligatures:normal;font-variant-position:normal;font-variant-caps:normal;font-variant-numeric:normal;font-variant-alternates:normal;font-feature-settings:normal;text-indent:0;text-align:start;text-decoration:none;text-decoration-line:none;text-decoration-style:solid;text-decoration-color:#000000;letter-spacing:normal;word-spacing:normal;text-transform:none;writing-mode:lr-tb;direction:ltr;text-orientation:mixed;dominant-baseline:auto;baseline-shift:baseline;text-anchor:start;white-space:normal;shape-padding:0;clip-rule:nonzero;display:inline;overflow:visible;visibility:visible;opacity:1;isolation:auto;mix-blend-mode:normal;color-interpolation:sRGB;color-interpolation-filters:linearRGB;solid-color:#000000;solid-opacity:1;vector-effect:none;fill:#000000;fill-opacity:1;fill-rule:nonzero;stroke:none;stroke-width:2.64583325;stroke-linecap:round;stroke-linejoin:miter;stroke-miterlimit:4;stroke-dasharray:none;stroke-dashoffset:0;stroke-opacity:1;color-rendering:auto;image-rendering:auto;shape-rendering:auto;text-rendering:auto;enable-background:accumulate"/></g></svg>