<?xml-stylesheet type="text/css" href="/css/svg.css"?>
<svg  class="icon__svg"  xmlns="http://www.w3.org/2000/svg" xmlns:xlink="http://www.w3.org/1999/xlink" version="1.1" x="0px" y="0px" viewBox="0 0 64 80" style="enable-background:new 0 0 64 64;" xml:space="preserve"><path d="M36,40.4c0,0-0.1-0.1-0.1-0.1l-0.2-0.2c0,0-0.1-0.1-0.1-0.1h-2.2l-1.7,1.7l-1.4-1.4l2.3-2.3h2.2c0-0.3,0.1-0.7,0.2-1h0V18.4  l-3-3l-3,3V49h6v-4l-0.7-0.7l1.7-1.7V40.4z"/><circle cx="43" cy="33" r="2"/><path d="M22,29.1v-3.3c-0.7,0.2-1.3,0.2-2,0v3.3C20.7,29,21.3,29,22,29.1z"/><circle cx="43" cy="22" r="2"/><path d="M53.1,17.5L43,7.4v3.2l8.5,8.5C51.9,18.4,52.4,17.9,53.1,17.5z"/><path d="M20,36.9V40c0,0.6,0.4,1,1,1s1-0.4,1-1v-3.1C21.3,37,20.7,37,20,36.9z"/><circle cx="21" cy="33" r="2"/><path d="M44,29.1v-3.3c-0.7,0.2-1.3,0.2-2,0v3.3C42.7,29,43.3,29,44,29.1z"/><path d="M39.5,34.9l-2.4,2.4c-0.4,0.4-0.4,1,0,1.4c0,0,0,0,0,0l0.2,0.2c0.4,0.4,1,0.4,1.4,0l2.4-2.4C40.4,36.1,39.9,35.6,39.5,34.9z  "/><path d="M53,57h-9v-5c0-0.6-0.4-1-1-1H21c-0.6,0-1,0.4-1,1v5h-9c-0.6,0-1,0.4-1,1v2h44v-2C54,57.4,53.6,57,53,57z"/><path d="M10,24.9C9.7,24.9,9.3,25,9,25c-0.3,0-0.7-0.1-1-0.1V37c0,0.6,0.4,1,1,1s1-0.4,1-1V24.9z"/><circle cx="9" cy="21" r="2"/><circle cx="55" cy="21" r="2"/><path d="M54,24.9V37c0,0.6,0.4,1,1,1s1-0.4,1-1V24.9C55.3,25,54.7,25,54,24.9z"/><path d="M24,12h16c0.6,0,1-0.4,1-1V5c0-0.6-0.4-1-1-1H24c-0.6,0-1,0.4-1,1v6C23,11.6,23.4,12,24,12z M29,7h6v2h-6V7z"/><path d="M12.5,19.1l8.5-8.5V7.4L10.9,17.5C11.6,17.9,12.1,18.4,12.5,19.1z"/><path d="M33.4,14l6.1,6.1c0.4-0.7,0.9-1.2,1.6-1.6L36.6,14H33.4z"/><path d="M24.5,20.1l6.1-6.1h-3.2l-4.5,4.5C23.6,18.9,24.1,19.4,24.5,20.1z"/><circle cx="21" cy="22" r="2"/></svg>