<?xml-stylesheet type="text/css" href="/css/svg.css"?>
<svg  class="icon__svg" xmlns="http://www.w3.org/2000/svg" xmlns:xlink="http://www.w3.org/1999/xlink" version="1.1" x="0px" y="0px" viewBox="0 0 32 40" enable-background="new 0 0 32 32" xml:space="preserve"><g><g><path d="M3,3h7V1H2C1.447,1,1,1.448,1,2v8h2V3z"/><path d="M29,10h2V2c0-0.552-0.447-1-1-1h-8v2h7V10z"/><path d="M29,29h-7v2h8c0.553,0,1-0.448,1-1v-8h-2V29z"/><path d="M3,22H1v8c0,0.552,0.447,1,1,1h8v-2H3V22z"/><path d="M30.866,16.5c0.179-0.31,0.179-0.69,0-1C27.838,10.257,22.142,7,16,7S4.162,10.257,1.134,15.5c-0.179,0.31-0.179,0.69,0,1    C4.162,21.743,9.858,25,16,25S27.838,21.743,30.866,16.5z M16,23c-5.23,0-10.094-2.668-12.832-7C5.906,11.668,10.77,9,16,9    s10.094,2.668,12.832,7C26.094,20.332,21.23,23,16,23z"/><path d="M16,10c-3.309,0-6,2.691-6,6s2.691,6,6,6s6-2.691,6-6S19.309,10,16,10z M16,20c-2.206,0-4-1.794-4-4s1.794-4,4-4    s4,1.794,4,4S18.206,20,16,20z"/></g></g></svg>