<?xml-stylesheet type="text/css" href="/css/svg.css"?>
<svg xmlns="http://www.w3.org/2000/svg" viewBox="0 0 24 30" x="0px" y="0px"><g data-name="Layer 67"><path class="icon__svg" d="M19.07,4.93A10,10,0,0,0,4.93,19.07,10,10,0,0,0,19.07,4.93Zm-2.81,9.91a1,1,0,0,1,0,1.42,1,1,0,0,1-.71.29,1,1,0,0,1-.71-.29L12,13.41,9.16,16.26a1,1,0,0,1-.71.29,1,1,0,0,1-.71-.29,1,1,0,0,1,0-1.42L10.59,12,7.74,9.16A1,1,0,1,1,9.16,7.74L12,10.59l2.84-2.85a1,1,0,1,1,1.42,1.42L13.41,12Z"/></g><text x="0" y="39" fill="#000000" font-size="5px" font-weight="bold" font-family="'Helvetica Neue', Helvetica, Arial-Unicode, Arial, Sans-serif">Created by Caesar Rizky Kurniawan</text><text x="0" y="44" fill="#000000" font-size="5px" font-weight="bold" font-family="'Helvetica Neue', Helvetica, Arial-Unicode, Arial, Sans-serif">from the Noun Project</text></svg>