<?xml-stylesheet type="text/css" href="/css/svg.css"?>
<svg xmlns:dc="http://purl.org/dc/elements/1.1/" xmlns:cc="http://creativecommons.org/ns#" xmlns:rdf="http://www.w3.org/1999/02/22-rdf-syntax-ns#" xmlns:svg="http://www.w3.org/2000/svg" xmlns="http://www.w3.org/2000/svg" xmlns:sodipodi="http://sodipodi.sourceforge.net/DTD/sodipodi-0.dtd" xmlns:inkscape="http://www.inkscape.org/namespaces/inkscape" version="1.1" x="0px" y="0px" viewBox="0 0 100 125"><g transform="translate(0,-952.36218)"><path class="icon__svg" style="text-indent:0;text-transform:none;direction:ltr;block-progression:tb;baseline-shift:baseline;color:#000000;enable-background:accumulate;" d="m 49.79685,968.36755 a 2.0002003,2.0002003 0 0 0 -0.9062,0.3437 l -4.9063,3.3125 -5.8125,-1.1875 a 2.0002003,2.0002003 0 0 0 -2.0938,0.8438 l -3.25,4.9687 -5.8124,1.125 a 2.0002003,2.0002003 0 0 0 -1.5938,1.5938 l -1.125,5.8125 -4.9688,3.25 a 2.0002003,2.0002003 0 0 0 -0.8437,2.0937 l 1.1875,5.8125 -3.3125,4.90635 a 2.0002003,2.0002003 0 0 0 0,2.25 l 3.3125,4.875 -1.1875,5.8125 a 2.0002003,2.0002003 0 0 0 0.8437,2.0938 l 4.9688,3.25 1.125,5.8125 a 2.0002003,2.0002003 0 0 0 1.5938,1.5937 l 5.8124,1.125 3.25,4.9688 a 2.0002003,2.0002003 0 0 0 2.0938,0.8437 l 5.8125,-1.1875 4.9063,3.3125 a 2.0002003,2.0002003 0 0 0 1.125,0.375 2.0002003,2.0002003 0 0 0 1.125,-0.375 l 4.9062,-3.3125 5.7812,1.1875 a 2.0002003,2.0002003 0 0 0 2.0938,-0.8437 l 3.25,-4.9688 5.8125,-1.125 a 2.0002003,2.0002003 0 0 0 1.5937,-1.5937 l 1.125,-5.8125 4.9688,-3.25 a 2.0002003,2.0002003 0 0 0 0.8438,-2.0938 l -1.1876,-5.8125 3.3126,-4.875 a 2.0002003,2.0002003 0 0 0 0,-2.25 l -3.3126,-4.90635 1.1876,-5.8125 a 2.0002003,2.0002003 0 0 0 -0.8438,-2.0937 l -4.9688,-3.25 -1.125,-5.8125 a 2.0002003,2.0002003 0 0 0 -1.5937,-1.5938 l -5.8125,-1.125 -3.25,-4.9687 a 2.0002003,2.0002003 0 0 0 -2.0938,-0.8438 l -5.7812,1.1875 -4.9062,-3.3125 a 2.0002003,2.0002003 0 0 0 -1.3438,-0.3437 z m 0.2188,4.4062 4.4687,3.0625 a 2.0002003,2.0002003 0 0 0 1.5625,0.3125 l 5.25,-1.125 2.9688,4.5313 a 2.0002003,2.0002003 0 0 0 1.3124,0.875 l 5.3438,1 1,5.3437 a 2.0002003,2.0002003 0 0 0 0.875,1.3125 l 4.5312,2.9688 -1.125,5.2812 a 2.0002003,2.0002003 0 0 0 0.3126,1.5625 l 3.0624,4.46885 -3.0624,4.4375 a 2.0002003,2.0002003 0 0 0 -0.3126,1.5625 l 1.125,5.2812 -4.5312,2.9688 a 2.0002003,2.0002003 0 0 0 -0.875,1.3125 l -1,5.3438 -5.3438,1 a 2.0002003,2.0002003 0 0 0 -1.3124,0.875 l -2.9688,4.5312 -5.25,-1.125 a 2.0002003,2.0002003 0 0 0 -1.5625,0.3125 l -4.4687,3.0625 -4.4688,-3.0625 a 2.0002003,2.0002003 0 0 0 -1.5625,-0.3125 l -5.2813,1.125 -2.9687,-4.5312 a 2.0002003,2.0002003 0 0 0 -1.3125,-0.875 l -5.3438,-1 -1,-5.3438 a 2.0002003,2.0002003 0 0 0 -0.875,-1.3125 l -4.5312,-2.9688 1.125,-5.2812 a 2.0002003,2.0002003 0 0 0 -0.3125,-1.5625 l -3.0625,-4.4375 3.0625,-4.46885 a 2.0002003,2.0002003 0 0 0 0.3125,-1.5625 l -1.125,-5.2812 4.5312,-2.9688 a 2.0002003,2.0002003 0 0 0 0.875,-1.3125 l 1,-5.3437 5.3438,-1 a 2.0002003,2.0002003 0 0 0 1.3125,-0.875 l 2.9687,-4.5313 5.2813,1.125 a 2.0002003,2.0002003 0 0 0 1.5625,-0.3125 l 4.4688,-3.0625 z m 0,5.5938 c -13.2311,0 -24,10.7688 -24,24.00005 0,13.2311 10.7689,24 24,24 13.2311,0 24,-10.7689 24,-24 0,-13.23125 -10.7689,-24.00005 -24,-24.00005 z m 0,4 c 11.0695,0 20,8.9306 20,20.00005 0,11.0694 -8.9305,20 -20,20 -11.0695,0 -20,-8.9306 -20,-20 0,-11.06945 8.9305,-20.00005 20,-20.00005 z m 10.4062,9.9375 -13,13.87505 -6.8125,-6.0625 -4,4.4687 9,8 2.1875,1.9375 2,-2.125 15,-16.00005 -4.375,-4.0937 z" fill="#000000" fill-opacity="1" fill-rule="nonzero" stroke="none" marker="none" visibility="visible" display="inline" overflow="visible"/></g></svg>